<?xml version="1.0" standalone="no"?>
<!DOCTYPE svg PUBLIC "-//W3C//DTD SVG 20010904//EN"
 "http://www.w3.org/TR/2001/REC-SVG-20010904/DTD/svg10.dtd">
<svg version="1.0" xmlns="http://www.w3.org/2000/svg"
 width="512.000000pt" height="512.000000pt" viewBox="0 0 512.000000 512.000000"
 preserveAspectRatio="xMidYMid meet">

<g transform="translate(0.000000,512.000000) scale(0.100000,-0.100000)"
fill="#FFFFFF" stroke="none">
<path d="M2409 4876 c-91 -32 -163 -82 -253 -177 -160 -167 -294 -424 -395
-757 -32 -107 -41 -127 -57 -125 -322 32 -610 29 -776 -6 -200 -43 -327 -103
-428 -201 -194 -189 -182 -471 34 -789 55 -80 55 -81 41 -115 -23 -54 -19
-124 10 -183 50 -99 173 -149 270 -109 l34 15 73 -61 c40 -33 79 -66 86 -72
11 -10 4 -28 -34 -92 -26 -43 -75 -137 -110 -209 -298 -619 -223 -1068 197
-1181 85 -23 273 -23 394 0 50 9 150 36 224 59 101 31 136 38 139 29 2 -8 29
-64 59 -125 73 -150 147 -260 235 -352 137 -145 256 -205 408 -205 151 0 265
56 400 196 l75 77 81 1 c70 1 86 4 122 28 111 74 133 234 45 338 l-25 30 34
87 c18 49 49 142 69 208 30 101 39 120 55 118 323 -32 610 -29 777 7 287 61
466 184 538 367 32 84 33 229 1 333 -29 93 -95 219 -170 324 -73 102 -276 312
-403 417 -54 45 -99 83 -99 85 0 1 21 38 47 81 25 43 74 137 109 208 298 620
221 1075 -199 1181 -60 15 -66 19 -82 54 -85 188 -366 167 -416 -31 l-12 -47
-112 -36 c-62 -20 -116 -36 -121 -36 -5 0 -34 53 -63 116 -73 154 -153 275
-246 373 -138 144 -252 201 -405 201 -64 0 -102 -6 -151 -24z m314 -119 c149
-74 292 -252 410 -513 l36 -78 -152 -76 c-178 -89 -374 -208 -541 -328 l-120
-85 -125 32 c-69 18 -187 45 -261 60 -159 33 -150 8 -80 221 127 387 309 667
495 763 72 37 117 47 193 43 59 -2 86 -10 145 -39z m1364 -587 c77 -38 144
-111 174 -188 31 -81 37 -247 14 -368 -34 -173 -125 -402 -245 -616 -29 -51
-54 -94 -55 -96 -2 -2 -52 31 -113 73 -61 41 -163 107 -228 145 -64 38 -119
71 -120 73 -2 2 -13 68 -25 148 -28 195 -80 436 -130 599 -23 74 -43 142 -46
150 -3 12 18 24 90 48 53 18 102 32 109 32 8 0 29 -18 46 -39 101 -126 299
-103 374 43 19 36 22 38 56 32 20 -3 64 -19 99 -36z m-847 -207 c63 -194 167
-680 150 -697 -3 -2 -70 28 -150 66 -183 89 -401 180 -597 249 -84 30 -153 57
-153 60 0 5 210 146 320 215 50 31 381 203 392 204 4 0 21 -44 38 -97z m-1617
-242 c38 -5 70 -11 72 -13 2 -1 -5 -41 -16 -88 -24 -108 -64 -381 -79 -528
l-11 -114 -101 -116 c-103 -120 -281 -351 -333 -434 -17 -26 -34 -47 -39 -48
-15 0 -141 113 -139 124 1 6 9 35 17 65 48 168 -110 319 -279 267 -50 -16 -50
-16 -71 10 -46 57 -117 187 -145 266 -37 107 -40 218 -7 305 58 156 282 276
583 312 91 11 446 6 548 -8z m292 -46 c44 -9 138 -29 209 -47 l130 -31 -25
-19 c-93 -75 -284 -244 -393 -349 l-129 -124 7 65 c10 98 43 302 67 418 24
116 15 109 134 87z m660 -180 c227 -79 388 -146 621 -260 l212 -103 6 -48 c23
-177 33 -636 18 -821 l-7 -83 -105 -106 c-143 -144 -321 -307 -461 -420 l-117
-95 -133 44 c-215 71 -458 171 -685 281 l-211 103 -6 39 c-17 110 -29 432 -24
658 l5 249 129 129 c147 148 302 289 453 412 87 70 109 84 130 79 14 -3 93
-29 175 -58z m1019 -472 c116 -70 316 -206 316 -215 0 -16 -149 -223 -260
-362 l-105 -131 -6 340 c-3 187 -9 355 -13 373 -4 17 -4 32 -1 32 4 0 35 -17
69 -37z m-2000 -930 c4 -18 4 -33 -1 -33 -24 0 -383 239 -383 255 0 15 160
235 268 370 l97 119 6 -339 c3 -187 9 -355 13 -372z m2547 537 c220 -190 402
-419 470 -594 45 -112 52 -242 18 -331 -81 -217 -426 -340 -899 -321 -151 6
-297 19 -305 28 -2 1 5 41 16 88 25 116 56 321 75 496 l15 146 101 116 c104
121 281 351 333 434 17 26 36 47 42 45 7 -1 67 -49 134 -107z m-2868 -494 c69
-47 173 -112 231 -146 58 -34 106 -65 106 -69 0 -3 11 -78 24 -166 32 -206 75
-406 127 -575 23 -74 43 -142 46 -151 3 -12 -20 -24 -109 -52 -364 -119 -634
-100 -772 54 -65 72 -88 140 -94 274 -7 171 32 337 134 569 36 81 173 346 180
346 1 0 58 -38 127 -84z m2117 -303 c-20 -142 -68 -394 -76 -402 -6 -7 -137
18 -298 56 l-150 36 25 19 c93 75 284 244 389 345 72 69 126 115 128 107 2 -7
-6 -80 -18 -161z m-1515 -42 c189 -92 379 -172 579 -243 97 -35 176 -65 176
-68 0 -8 -288 -197 -375 -247 -70 -41 -330 -173 -340 -173 -7 0 -72 213 -105
345 -31 129 -80 392 -80 433 0 13 3 22 8 20 4 -2 66 -32 137 -67z m1036 -385
c74 -19 186 -44 249 -57 63 -12 118 -25 122 -28 8 -7 -47 -190 -92 -308 l-32
-83 -50 0 c-95 0 -177 -63 -205 -159 -18 -64 -8 -132 28 -182 l20 -29 -36 -43
c-56 -66 -134 -127 -205 -161 -57 -27 -76 -31 -150 -31 -75 0 -93 4 -150 31
-36 17 -89 51 -117 74 -101 83 -220 255 -303 438 l-38 86 151 76 c180 91 389
218 542 329 61 44 115 80 121 80 7 1 72 -14 145 -33z"/>
<path d="M2486 2884 c-182 -58 -287 -244 -242 -424 81 -322 511 -367 663 -70
25 49 28 65 28 150 0 88 -3 101 -33 162 -57 117 -162 186 -295 194 -48 3 -88
-1 -121 -12z"/>
</g>
</svg>
